<svg width="24" height="24" viewBox="0 0 24 24" fill="none" xmlns="http://www.w3.org/2000/svg">
<circle cx="12" cy="12" r="12" fill="#C8AB63"/>
<g clip-path="url(#clip0_5001_6398)">
<path d="M11.3489 15.2149C11.4099 15.0385 11.2268 14.8147 10.9419 14.7198C10.6571 14.6248 10.379 14.6926 10.3247 14.869C10.2637 15.0453 10.4468 15.2691 10.7317 15.3641C11.0098 15.4591 11.2879 15.398 11.3489 15.2149Z" fill="white"/>
<path d="M11.22 15.4795C10.9826 15.5473 10.8266 15.7304 10.8673 15.8797C10.9148 16.0289 11.1386 16.0899 11.376 16.0221C11.6134 15.9543 11.7694 15.7711 11.7287 15.6219C11.688 15.4727 11.4574 15.4049 11.22 15.4795Z" fill="white"/>
<path d="M11.6538 14.8214C11.7759 14.7264 11.7555 14.489 11.5995 14.2923C11.4503 14.0956 11.2265 14.0143 11.1044 14.1092C10.9823 14.2042 11.0027 14.4416 11.1587 14.6383C11.3079 14.8349 11.5317 14.9163 11.6538 14.8214Z" fill="white"/>
<path d="M18.1042 9.58539C17.8126 9.5447 17.3853 9.53113 16.958 9.65322C16.6053 9.49722 16.1509 9.59896 15.9338 9.73461C15.4319 9.73461 15.0046 9.84992 14.774 10.1687C14.15 10.223 13.7702 10.6774 13.6616 11.0708C12.8206 11.4642 12.4272 12.251 12.2915 13.6143C12.2305 13.7092 12.1627 13.8245 12.1152 13.9534C12.1084 13.6414 12.1016 13.3701 12.1016 13.2209C12.1016 13.0038 12.1288 12.7868 12.1491 12.5901C12.1966 12.4951 12.2576 12.3663 12.2915 12.2306C12.3662 11.9186 12.4272 11.5523 12.4543 11.3692C12.4815 11.1861 12.5764 10.969 12.7392 10.8537C12.8952 10.7452 13.1869 10.6435 13.275 10.5485C13.4649 10.3586 13.3429 10.2772 13.4989 10.1077C13.6345 9.96522 13.8176 9.95844 13.9465 9.82278C14.0686 9.69392 14.0415 9.44974 14.1161 9.32087C14.1975 9.17165 14.3467 9.0767 14.4077 8.95461C14.4688 8.83931 14.3942 8.69009 14.462 8.47305C14.5095 8.31026 14.5366 8.11357 14.4213 7.80835C14.4213 7.80835 14.3128 8.09322 14.0822 8.18818C13.7566 8.33739 13.1394 8.66296 12.8138 8.98852C12.3865 9.41583 12.0474 10.0873 12.3255 10.9962C12.3255 11.22 12.2441 11.7151 12.1966 11.8983C12.183 11.9525 12.1695 12 12.1559 12.0475C12.1355 11.9457 12.0881 11.8508 12.0135 11.7694V11.7558H12.0067V11.7694C11.9321 11.844 11.8914 11.939 11.8642 12.0475C11.8507 12.0068 11.8371 11.9525 11.8235 11.8983C11.7761 11.7151 11.6879 11.22 11.6947 10.9962C11.9795 10.0805 11.6336 9.40905 11.2063 8.98852C10.8808 8.66296 10.2703 8.33061 9.93798 8.18818C9.71416 8.08644 9.59885 7.80835 9.59885 7.80835C9.48355 8.11357 9.51068 8.31026 9.55816 8.47305C9.6192 8.69009 9.55137 8.83931 9.61242 8.95461C9.67346 9.0767 9.8159 9.17165 9.90407 9.32087C9.97868 9.45652 9.95155 9.69392 10.0736 9.82278C10.2025 9.95844 10.3856 9.96522 10.5213 10.1077C10.6773 10.2772 10.5552 10.3518 10.7451 10.5485C10.8401 10.6435 11.1317 10.7452 11.2809 10.8537C11.4437 10.969 11.5387 11.1861 11.5658 11.3692C11.5929 11.5591 11.654 11.9186 11.7286 12.2306C11.7625 12.373 11.8168 12.5019 11.871 12.5901C11.8914 12.7868 11.9185 13.0038 11.9185 13.2209C11.9185 13.3701 11.9117 13.6346 11.9049 13.9534C11.8575 13.8245 11.7896 13.7092 11.7286 13.6143C11.5929 12.251 11.1928 11.4642 10.3585 11.0708C10.25 10.6774 9.87016 10.2297 9.24616 10.1687C9.01555 9.84313 8.58824 9.73461 8.08633 9.73461C7.87607 9.59218 7.41485 9.49722 7.06216 9.65322C6.63485 9.52435 6.20755 9.5447 5.91589 9.58539C5.53607 9.63965 5.21729 9.21913 5.21729 9.21913C5.29189 9.92452 5.44111 10.2908 5.65815 10.5553C5.94302 10.9012 5.89555 11.2471 6.19398 11.4981C6.40424 11.6677 6.8112 11.5388 7.0825 11.749C7.32668 11.939 7.38094 12.4341 7.72007 12.5833C8.07955 12.7461 8.34407 12.563 8.7239 12.7325C9.15798 12.9224 8.92737 13.248 9.44964 13.465C9.70059 13.5668 10.1618 13.2751 10.5077 13.4515C10.8469 13.6278 10.9282 13.8652 11.4234 13.7906C11.7693 13.9195 11.7964 14.2925 11.8778 14.5231C11.8642 15.1471 11.8507 15.9543 11.8507 16.1984H12.0067H12.1627C12.1627 15.9543 12.1491 15.1471 12.1355 14.5231C12.2102 14.2925 12.2441 13.9195 12.59 13.7906C13.0851 13.8652 13.1665 13.6278 13.5056 13.4515C13.8448 13.2751 14.3128 13.5668 14.5637 13.465C15.086 13.248 14.8486 12.9292 15.2895 12.7325C15.6693 12.563 15.9338 12.7461 16.2933 12.5833C16.6324 12.4273 16.6867 11.939 16.9309 11.749C17.2022 11.5388 17.6091 11.6744 17.8194 11.4981C18.1178 11.2471 18.0703 10.9012 18.3552 10.5553C18.5722 10.2908 18.7215 9.93131 18.7961 9.21913C18.7825 9.21913 18.4637 9.63965 18.1042 9.58539ZM14.367 8.20174C14.2517 9.35478 12.4475 10.0059 12.4611 10.9351C12.2305 9.78887 13.9397 9.19878 14.367 8.20174ZM11.5455 10.9419C11.559 10.0127 9.74807 9.36157 9.63277 8.20174C10.0601 9.19878 11.7693 9.78887 11.5455 10.9419ZM5.54285 9.83635C5.75989 10.2637 6.1872 10.5757 6.71624 10.8266C6.80442 10.44 6.53311 10.1551 6.28216 9.94487C6.62807 10.0873 6.99433 10.3179 6.91972 10.9148C7.14355 11.0097 7.37416 11.0979 7.61833 11.1861C7.74042 10.8334 7.69972 10.4875 7.22494 10.067C7.84216 10.3315 7.98459 10.8809 7.86929 11.2675C8.12024 11.3489 8.3712 11.4303 8.62216 11.5049C8.78494 11.064 8.65607 10.5757 8.26946 10.1348C8.94094 10.5214 8.9952 11.1318 8.85955 11.5863C9.1512 11.6812 9.44285 11.7762 9.71416 11.8847C9.8905 11.376 9.72094 11.0233 9.36824 10.5689C10.0397 10.9216 10.0736 11.5523 9.94477 11.9797C10.2229 12.095 10.4874 12.2238 10.7112 12.373C10.7994 12.1357 10.7722 11.7762 10.4399 11.3963C10.9689 11.7016 11.03 12.2035 10.9079 12.5155C11.2809 12.8139 11.5251 13.187 11.5522 13.6821C11.2267 11.8372 6.1465 12.0068 5.54285 9.83635ZM12.4408 13.6821C12.4679 13.187 12.7121 12.8139 13.0851 12.5155C12.963 12.2035 13.0241 11.7016 13.5531 11.3963C13.2208 11.7762 13.1936 12.1289 13.2818 12.373C13.5056 12.2238 13.7634 12.095 14.0482 11.9797C13.9194 11.5591 13.9465 10.9283 14.6248 10.5689C14.2721 11.0233 14.1025 11.376 14.2789 11.8847C14.5502 11.783 14.8418 11.6812 15.1335 11.5863C14.9978 11.1318 15.0521 10.5214 15.7235 10.1348C15.3369 10.5757 15.2149 11.064 15.3709 11.5049C15.6218 11.4235 15.8796 11.3489 16.1237 11.2675C16.0016 10.8741 16.1441 10.3315 16.7681 10.067C16.3001 10.4875 16.2526 10.8334 16.3747 11.1861C16.6189 11.1047 16.8495 11.0165 17.0733 10.9148C16.9987 10.3179 17.3649 10.0873 17.7109 9.94487C17.4531 10.1483 17.1818 10.4332 17.2768 10.8266C17.8058 10.5757 18.2331 10.2637 18.4569 9.83635C17.8533 12.0068 12.7731 11.8372 12.4408 13.6821Z" fill="white"/>
<path d="M13.0579 14.7266C12.773 14.8215 12.5966 15.0454 12.6509 15.2217C12.7119 15.3981 12.99 15.4659 13.2681 15.3709C13.553 15.276 13.7293 15.0522 13.6751 14.8758C13.614 14.6995 13.3427 14.6316 13.0579 14.7266Z" fill="white"/>
<path d="M12.7801 15.4795C12.5427 15.4116 12.3121 15.4727 12.2714 15.6219C12.224 15.7711 12.3867 15.9475 12.6241 16.0221C12.8615 16.0899 13.0921 16.0289 13.1328 15.8796C13.1735 15.7236 13.0175 15.5473 12.7801 15.4795Z" fill="white"/>
<path d="M12.8408 14.6383C12.99 14.4416 13.0172 14.2042 12.8951 14.1092C12.773 14.0143 12.5492 14.0956 12.3999 14.2923C12.2507 14.489 12.2236 14.7264 12.3457 14.8214C12.4678 14.9163 12.6916 14.8349 12.8408 14.6383Z" fill="white"/>
</g>
<defs>
<clipPath id="clip0_5001_6398">
<rect width="13.5652" height="13.5652" fill="white" transform="translate(5.21729 5.21729)"/>
</clipPath>
</defs>
</svg>
