<svg width="11" height="16" viewBox="0 0 11 16" fill="none" xmlns="http://www.w3.org/2000/svg">
<path d="M5.80011 0.666749C5.12584 0.666257 4.4581 0.798699 3.83507 1.0565C3.21204 1.3143 2.64595 1.6924 2.16918 2.16918C1.6924 2.64595 1.3143 3.21204 1.0565 3.83507C0.798699 4.4581 0.666257 5.12584 0.666749 5.80011C0.666749 9.65024 5.80011 15.3334 5.80011 15.3334C5.80011 15.3334 10.933 9.64977 10.933 5.80011C10.9335 5.12588 10.8011 4.45818 10.5433 3.83518C10.2855 3.21218 9.90746 2.64611 9.43073 2.16934C8.95401 1.69257 8.38797 1.31446 7.76499 1.05663C7.14202 0.798806 6.47433 0.666318 5.80011 0.666749ZM5.80011 7.63315C5.43747 7.63315 5.08298 7.52561 4.78146 7.32414C4.47994 7.12267 4.24494 6.83632 4.10616 6.50129C3.96739 6.16626 3.93108 5.7976 4.00183 5.44194C4.07257 5.08627 4.2472 4.75957 4.50362 4.50315C4.76004 4.24673 5.08674 4.0721 5.44241 4.00136C5.79807 3.93061 6.16673 3.96692 6.50176 4.1057C6.83679 4.24447 7.12314 4.47948 7.32461 4.78099C7.52608 5.08251 7.63361 5.437 7.63361 5.79964C7.63349 6.28588 7.44028 6.75216 7.09645 7.09599C6.75263 7.43981 6.28634 7.63302 5.80011 7.63315Z" fill="black"/>
</svg>
