<svg width="28" height="28" viewBox="0 0 28 28" fill="none" xmlns="http://www.w3.org/2000/svg">
<path d="M25.6438 9.19332C25.5891 7.95353 25.3886 7.10118 25.1014 6.36261C24.8051 5.57864 24.3493 4.87675 23.7521 4.29327C23.1686 3.70071 22.4621 3.24026 21.6872 2.94861C20.9444 2.66141 20.0965 2.46092 18.8567 2.40625C17.6077 2.34696 17.2111 2.33325 14.0432 2.33325C10.8753 2.33325 10.4787 2.34696 9.23432 2.40162C7.99453 2.45629 7.14219 2.65695 6.4038 2.94398C5.61965 3.24026 4.91776 3.69608 4.33428 4.29327C3.74172 4.87675 3.28145 5.58327 2.98962 6.35816C2.70242 7.10118 2.50193 7.9489 2.44727 9.18869C2.38798 10.4377 2.37427 10.8343 2.37427 14.0022C2.37427 17.1701 2.38798 17.5667 2.44264 18.8111C2.4973 20.0509 2.69797 20.9032 2.98517 21.6418C3.28145 22.4258 3.74172 23.1276 4.33428 23.7111C4.91776 24.3037 5.62428 24.7641 6.39917 25.0558C7.14219 25.343 7.9899 25.5435 9.22987 25.5981C10.4741 25.653 10.8708 25.6665 14.0387 25.6665C17.2067 25.6665 17.6032 25.653 18.8476 25.5981C20.0874 25.5435 20.9398 25.343 21.6781 25.0558C23.2463 24.4495 24.486 23.2097 25.0923 21.6418C25.3793 20.8988 25.58 20.0509 25.6347 18.8111C25.6893 17.5667 25.703 17.1701 25.703 14.0022C25.703 10.8343 25.6984 10.4377 25.6438 9.19332ZM23.5425 18.7199C23.4923 19.8595 23.3009 20.4748 23.1414 20.8851C22.7493 21.9016 21.9425 22.7083 20.926 23.1004C20.5158 23.2599 19.896 23.4513 18.7609 23.5014C17.5302 23.5562 17.1611 23.5697 14.0478 23.5697C10.9346 23.5697 10.5608 23.5562 9.33457 23.5014C8.19502 23.4513 7.57967 23.2599 7.16943 23.1004C6.66358 22.9134 6.20313 22.6172 5.8294 22.2297C5.44196 21.8513 5.14567 21.3955 4.95872 20.8897C4.79918 20.4794 4.60777 19.8595 4.55774 18.7245C4.5029 17.4938 4.48937 17.1246 4.48937 14.0113C4.48937 10.898 4.5029 10.5243 4.55774 9.29819C4.60777 8.15864 4.79918 7.54329 4.95872 7.13305C5.14567 6.62702 5.44196 6.16675 5.83403 5.79284C6.21222 5.4054 6.66803 5.10911 7.17406 4.92233C7.5843 4.7628 8.20428 4.57139 9.33919 4.52118C10.5699 4.46652 10.9392 4.45281 14.0523 4.45281C17.1702 4.45281 17.5393 4.46652 18.7655 4.52118C19.9051 4.57139 20.5204 4.7628 20.9307 4.92233C21.4365 5.10911 21.897 5.4054 22.2707 5.79284C22.6581 6.17121 22.9544 6.62702 23.1414 7.13305C23.3009 7.54329 23.4923 8.1631 23.5425 9.29819C23.5972 10.5289 23.6109 10.898 23.6109 14.0113C23.6109 17.1246 23.5972 17.4892 23.5425 18.7199Z" fill="white"/>
<path d="M14.0432 8.00819C10.7341 8.00819 8.04918 10.6929 8.04918 14.0022C8.04918 17.3115 10.7341 19.9962 14.0432 19.9962C17.3525 19.9962 20.0372 17.3115 20.0372 14.0022C20.0372 10.6929 17.3525 8.00819 14.0432 8.00819ZM14.0432 17.8904C11.8964 17.8904 10.155 16.1492 10.155 14.0022C10.155 11.8552 11.8964 10.114 14.0432 10.114C16.1902 10.114 17.9314 11.8552 17.9314 14.0022C17.9314 16.1492 16.1902 17.8904 14.0432 17.8904Z" fill="white"/>
<path d="M21.6737 7.7712C21.6737 8.54396 21.0472 9.17053 20.2742 9.17053C19.5015 9.17053 18.8749 8.54396 18.8749 7.7712C18.8749 6.99827 19.5015 6.37187 20.2742 6.37187C21.0472 6.37187 21.6737 6.99827 21.6737 7.7712Z" fill="white"/>
</svg>
