<svg width="120" height="112" viewBox="0 0 120 112" fill="none" xmlns="http://www.w3.org/2000/svg">
<path d="M48.5982 27.7023C48.7082 27.5923 48.4459 26.7631 48.5051 26.5939C48.5643 26.4247 48.8689 25.9001 48.8689 25.9001C48.8689 25.9001 49.1651 26.1878 49.4104 26.247C49.6474 26.3062 50.0112 26.4078 50.2396 26.5516C50.2481 26.797 50.1042 27.3808 50.0366 27.6685C49.9689 27.9561 50.2396 27.5246 50.5273 27.5923C50.815 27.66 50.595 28.21 50.815 28.32C51.035 28.43 51.9911 28.4469 52.2449 28.3792C52.5072 28.3115 51.9572 27.8631 51.6865 27.6854C51.5003 27.5585 51.2973 26.5601 51.2211 25.9678C51.1788 25.6886 50.8742 25.6463 50.7388 25.6717C50.5188 25.714 49.512 24.8002 49.512 24.8002C49.605 24.6394 49.8673 23.9625 49.9435 23.6156C50.0196 23.2687 49.4866 22.9472 48.9705 23.0741C49.0382 22.7864 49.6389 21.2465 50.0366 21.2634C50.0366 21.2634 50.1042 21.585 50.0196 21.9319C49.9435 22.2788 50.2904 22.5241 50.4935 22.6934C50.6965 22.8626 50.9504 22.5749 51.1703 22.4395C51.3903 22.3042 51.4073 21.9996 51.458 21.7626C51.5088 21.5342 52.1011 21.0519 52.2026 20.8912C52.2957 20.7304 52.9218 20.6881 53.1925 20.5612C53.4294 20.4596 53.3448 20.3243 53.3702 20.0704C56.5431 19.1651 54.5294 17.5913 53.5141 17.0329C53.8356 15.7299 52.8541 14.8415 52.1603 14.4692C51.8811 14.3169 51.7457 14.4015 51.9995 14.5792C52.7187 15.0784 53.3279 16.5676 51.9403 17.7013C51.788 17.676 51.6526 17.6421 51.6019 17.5913C51.458 17.439 51.6442 17.0414 51.5596 16.8552C51.4749 16.6691 51.0434 16.1868 50.9673 16.356C50.8065 16.7114 50.7981 17.126 51.0011 17.6929C50.4173 18.0059 49.9266 18.6405 49.5797 18.7928C48.3359 19.3089 46.7368 18.6913 46.5252 18.429C46.3222 18.1752 46.5168 19.072 46.8806 19.292C46.6268 19.3851 46.2122 19.3512 45.916 19.182C45.7214 19.072 45.9076 19.3766 46.0937 19.5882C45.3491 19.6389 45.1122 19.952 44.503 20.172C43.97 20.282 43.2423 20.2143 43.0308 20.155C42.8362 20.0958 43.0647 20.4766 43.3185 20.7135C43.0308 20.9504 42.8616 21.1619 42.7939 21.2381C42.5401 21.5511 41.2624 24.2079 41.2624 24.2079L40.3487 26.247C40.3487 26.247 40.1879 26.5601 39.8325 26.5431C38.7072 26.4924 37.8865 25.2148 38.3434 24.5886C38.4957 24.3856 37.9796 24.5802 37.8188 24.724C37.658 24.8679 37.3873 25.1725 37.5819 25.5617C37.4804 25.6378 37.0996 25.5617 36.8712 25.5024C36.6766 25.4517 36.9473 26.1709 37.8442 26.2047C37.7342 26.4078 37.4888 26.4924 37.2942 26.5516C37.1335 26.6024 37.7088 26.9154 38.3349 26.6024C38.3265 26.8477 38.2419 26.9747 38.0896 27.0846C37.9626 27.1777 38.5465 27.3131 38.978 26.9239C38.9187 27.2031 38.6564 27.3639 38.7749 27.4485C38.8934 27.5331 39.2656 27.4654 39.5618 27.2116C39.621 27.3216 39.2656 27.7869 39.2233 28.0069C39.181 28.2269 39.2741 28.7938 39.3333 29.0392C39.3926 29.2845 39.9002 31.2644 39.9002 31.2644C39.9002 31.2644 39.6718 32.5674 39.5025 33.0582C39.3333 33.5489 39.3333 34.2089 39.0795 34.505C38.978 34.6234 39.5618 34.3781 39.4772 35.0634C39.4433 35.368 38.9272 38.8032 38.3942 39.8524C38.3011 40.0301 38.2672 40.1993 38.208 40.3008C38.1488 40.4023 38.1995 40.5039 38.2926 40.58C38.5041 40.7577 38.0388 41.4854 38.0557 41.7138C38.0811 42.0861 38.2757 43.1353 38.5211 43.1099C38.7664 43.0845 38.8764 42.5938 38.8764 42.5938C38.8764 42.5938 39.0964 43.1607 39.2741 43.1268C39.4602 43.093 39.7141 42.3399 39.2826 41.46C39.198 41.2992 40.0187 37.9317 40.0187 37.9317L40.5179 36.7979L41.5332 34.3358C41.5332 34.3358 42.337 33.9635 42.4216 33.2951C42.447 33.1174 43.3354 33.5912 43.3354 33.5912L42.997 34.4373C42.997 34.4373 42.1509 34.9365 42.1001 35.1142C42.0493 35.2919 42.1086 35.4526 42.2355 35.7318C42.3624 36.0111 42.3793 37.5594 42.1339 38.2363C42.0493 38.4648 42.4555 38.2279 42.5147 38.3125C42.7178 38.5748 42.1424 39.2686 42.2439 39.4632C42.337 39.6578 43.2762 40.3008 43.5723 40.36C43.9954 40.4447 43.4708 39.0317 43.4708 39.0317C43.4708 39.0317 43.7246 38.3209 43.6992 38.1263C43.6654 37.8979 43.3354 37.5933 43.3185 37.331C43.3016 37.1195 43.1493 35.7826 43.2339 35.6134C43.3185 35.4442 44.3169 35.0127 44.7484 34.8857C45.1799 34.7588 45.8483 33.8366 46.3729 33.202C46.5929 32.9397 46.6352 32.5759 46.4829 32.2967C46.2883 31.9328 45.8145 30.926 45.3661 30.1137C45.7553 30.0545 46.4237 29.5722 46.136 29.4876C45.916 29.4284 45.6453 29.2761 45.6876 29.0899C46.246 29.1745 46.8552 28.6838 46.686 28.6838C46.3222 28.6753 45.6791 28.4723 45.696 27.9392C45.7214 26.907 46.6183 25.274 46.7368 25.2148C46.9314 25.1217 47.7267 25.2317 47.9721 25.2317C48.0905 25.2317 47.7013 25.697 47.3629 25.8324C47.5236 25.9763 47.6759 26.0947 47.6082 26.2047C47.5321 26.3485 47.3459 26.4839 47.2952 26.5347C47.126 26.7377 47.6421 27.7108 47.8113 27.7192C47.8959 27.7277 48.0567 27.3723 48.0567 27.3723C48.0567 27.3723 48.4543 27.8461 48.5982 27.7023ZM53.4718 17.2444C54.174 17.7352 54.8594 18.7167 53.1756 19.1143C53.0741 18.852 52.9472 18.5813 52.8372 18.3444C53.1502 17.9467 53.3533 17.5829 53.4718 17.2444Z" fill="black"/>
<path d="M83.0092 25.5277C82.7808 25.5869 82.4 25.6546 82.2985 25.5869C82.4931 25.1977 82.2223 24.8846 82.0616 24.7492C81.9008 24.5969 81.3847 24.4023 81.537 24.6139C81.9854 25.2315 81.1732 26.5176 80.0479 26.5684C79.6925 26.5684 79.5317 26.2553 79.5317 26.2553L78.6179 24.2162C78.6179 24.2162 77.3403 21.551 77.0865 21.2464C77.0273 21.1702 76.858 20.9587 76.5619 20.7218C76.8157 20.4933 77.0442 20.1126 76.8496 20.1633C76.6381 20.2226 75.9104 20.2903 75.3774 20.1803C74.7597 19.9603 74.5228 19.6388 73.7867 19.5965C73.9644 19.3849 74.1505 19.0803 73.9644 19.1903C73.6682 19.3595 73.2536 19.3934 72.9998 19.3003C73.3721 19.0803 73.5667 18.1835 73.3552 18.4373C73.1436 18.6996 71.5445 19.3172 70.3007 18.8011C69.9454 18.6573 69.4631 18.0142 68.8793 17.7012C69.0823 17.1428 69.0823 16.7197 68.9131 16.3643C68.837 16.2036 68.4054 16.6859 68.3208 16.8635C68.2362 17.0497 68.4224 17.4474 68.2785 17.5996C68.2278 17.6589 68.0924 17.6927 67.9401 17.7096C66.5525 16.5759 67.1617 15.0867 67.8809 14.5875C68.1347 14.4098 67.9993 14.3252 67.7201 14.4775C67.0263 14.8498 66.0448 15.7467 66.3663 17.0412C65.351 17.5996 63.3373 19.1734 66.5102 20.0787C66.5356 20.3326 66.4594 20.4679 66.6879 20.5695C66.9586 20.6879 67.5763 20.7387 67.6778 20.8995C67.7709 21.0602 68.3716 21.534 68.4224 21.7709C68.4731 21.9994 68.4985 22.3125 68.71 22.4478C68.9216 22.5832 69.1754 22.8709 69.3785 22.7017C69.5815 22.5324 69.9284 22.2871 69.8523 21.9402C69.7761 21.5933 69.8354 21.2717 69.8354 21.2717C70.233 21.2548 70.8422 22.7863 70.9015 23.0824C70.3938 22.9555 69.8523 23.277 69.9284 23.6239C70.0046 23.9708 70.2669 24.6477 70.36 24.8085C70.36 24.8085 69.3531 25.7223 69.1331 25.68C68.9977 25.6546 68.6931 25.6969 68.6508 25.9761C68.5662 26.5599 68.3716 27.5668 68.1855 27.6937C67.9232 27.8714 67.3732 28.3198 67.627 28.3875C67.8893 28.4552 68.837 28.4383 69.057 28.3283C69.2769 28.2183 69.0569 27.6683 69.3446 27.6006C69.6323 27.5329 69.9031 27.9729 69.8354 27.6768C69.7677 27.3891 69.6238 26.8053 69.6323 26.5599C69.8608 26.4161 70.2246 26.3145 70.4615 26.2553C70.6984 26.1961 71.003 25.9084 71.003 25.9084C71.003 25.9084 71.3076 26.433 71.3668 26.6022C71.426 26.7714 71.1637 27.6006 71.2737 27.7106C71.4176 27.8629 71.7645 27.4314 71.7645 27.4314C71.7645 27.4314 71.9252 27.7868 72.0099 27.7783C72.1706 27.7698 72.6867 26.7968 72.526 26.5937C72.4752 26.5345 72.2975 26.3991 72.2129 26.2638C72.1452 26.1453 72.2975 26.0353 72.4583 25.8915C72.1198 25.7561 71.7306 25.2907 71.8491 25.2907C72.0945 25.2992 72.8898 25.1808 73.0844 25.2738C73.2113 25.3331 74.0997 26.966 74.1251 27.9983C74.142 28.5313 73.4905 28.7259 73.1352 28.7429C72.966 28.7513 73.5752 29.2421 74.1336 29.149C74.1759 29.3351 73.8967 29.4874 73.6851 29.5467C73.3975 29.6313 74.0744 30.1135 74.4551 30.1728C74.0067 30.9935 73.5328 31.9919 73.3382 32.3557C73.1859 32.6349 73.2367 32.9988 73.4482 33.2611C73.9728 33.8956 74.6412 34.8264 75.0728 34.9448C75.5043 35.0717 76.5111 35.5032 76.5873 35.6725C76.6719 35.8417 76.5196 37.1785 76.5027 37.3901C76.4858 37.6523 76.1558 37.9569 76.1219 38.1854C76.0965 38.38 76.3504 39.0907 76.3504 39.0907C76.3504 39.0907 75.8258 40.5037 76.2488 40.4191C76.545 40.3599 77.4842 39.7084 77.5772 39.5222C77.6703 39.3276 77.095 38.6423 77.3065 38.3715C77.3742 38.2869 77.7718 38.5238 77.6872 38.2954C77.4419 37.6185 77.4588 36.0701 77.5857 35.7909C77.7126 35.5117 77.7634 35.3509 77.7211 35.1733C77.6703 34.9956 76.8242 34.4964 76.8242 34.4964L76.4858 33.6503C76.4858 33.6503 77.3742 33.1764 77.3996 33.3541C77.4842 34.0226 78.288 34.3948 78.288 34.3948L79.3033 36.857L79.8025 37.9908C79.8025 37.9908 80.6232 41.3583 80.5386 41.519C80.1071 42.399 80.3609 43.1436 80.5471 43.1859C80.7332 43.2197 80.9447 42.6528 80.9447 42.6528C80.9447 42.6528 81.0632 43.1351 81.3001 43.169C81.5455 43.2028 81.7401 42.1452 81.7655 41.7729C81.7824 41.536 81.317 40.8083 81.5285 40.6391C81.6216 40.5629 81.6808 40.4614 81.6132 40.3599C81.5539 40.2583 81.5201 40.0891 81.427 39.9114C80.9024 38.8538 80.3863 35.4271 80.344 35.1225C80.2594 34.4371 80.8432 34.6825 80.7417 34.5641C80.4878 34.2679 80.4878 33.608 80.3186 33.1172C80.1494 32.6265 79.9209 31.3235 79.9209 31.3235C79.9209 31.3235 80.4286 29.3351 80.4878 29.0982C80.5471 28.8528 80.6401 28.286 80.5978 28.066C80.5555 27.846 80.2002 27.3806 80.2594 27.2706C80.5471 27.5245 80.9278 27.5922 81.0463 27.5075C81.1647 27.4229 80.9024 27.2706 80.8432 26.983C81.2747 27.3722 81.8585 27.2368 81.7316 27.1437C81.5793 27.0337 81.4947 26.9068 81.4862 26.6614C82.1124 26.966 82.6877 26.6614 82.5269 26.6107C82.3408 26.5514 82.087 26.4584 81.977 26.2638C82.9331 26.1876 83.2038 25.4769 83.0092 25.5277ZM66.434 17.2443C66.544 17.5827 66.7555 17.9466 67.0686 18.3442C66.9586 18.5811 66.8402 18.8519 66.7302 19.1142C65.0464 18.7165 65.7318 17.735 66.434 17.2443Z" fill="black"/>
<path d="M58.8194 40.5882C58.9209 40.2836 58.6078 39.8944 58.1171 39.7336C57.6264 39.5729 57.1441 39.6829 57.0425 39.9959C56.941 40.3005 57.2541 40.6897 57.7448 40.8505C58.2356 41.0112 58.7178 40.8928 58.8194 40.5882Z" fill="black"/>
<path d="M58.5908 41.0371C58.1762 41.1556 57.9054 41.4686 57.9816 41.7309C58.0577 41.9932 58.4554 42.1032 58.87 41.9763C59.2846 41.8578 59.5553 41.5448 59.4792 41.2825C59.403 41.0202 59.0054 40.9102 58.5908 41.0371Z" fill="black"/>
<path d="M59.3521 39.8944C59.5636 39.7252 59.5298 39.319 59.259 38.9806C58.9967 38.6422 58.6075 38.4983 58.396 38.6591C58.1845 38.8283 58.2183 39.2344 58.4891 39.5729C58.7514 39.9198 59.1406 40.0636 59.3521 39.8944Z" fill="black"/>
<path d="M70.546 30.8074C70.0384 30.7397 69.3023 30.7058 68.5577 30.9258C67.9485 30.6551 67.1532 30.8243 66.7809 31.0697C65.9094 31.0697 65.1648 31.2643 64.7671 31.8227C63.6841 31.9242 63.0157 32.7026 62.8296 33.388C61.3743 34.0733 60.6805 35.4356 60.4436 37.8047C60.3336 37.9654 60.2236 38.1685 60.139 38.3969C60.1305 37.8554 60.122 37.3901 60.122 37.1278C60.122 36.747 60.1728 36.3747 60.2066 36.0278C60.2913 35.8671 60.3928 35.6386 60.452 35.4017C60.5789 34.8602 60.6805 34.2256 60.7312 33.9041C60.782 33.5826 60.9428 33.2018 61.222 33.0072C61.4927 32.8211 61.9919 32.6434 62.1527 32.4826C62.4827 32.1527 62.2711 32.0088 62.5419 31.7212C62.7788 31.4673 63.0919 31.4589 63.3203 31.222C63.5318 30.9935 63.4811 30.5789 63.6164 30.3505C63.7603 30.0966 64.0141 29.9274 64.1156 29.7159C64.2172 29.5128 64.0987 29.2505 64.2087 28.8782C64.2933 28.5906 64.3356 28.2606 64.1326 27.7275C64.1326 27.7275 63.938 28.2183 63.5488 28.3875C62.9819 28.6413 61.9158 29.2167 61.3489 29.7836C60.6043 30.5281 60.012 31.6873 60.5028 33.278C60.5028 33.6672 60.3589 34.5302 60.2743 34.8433C60.2489 34.9364 60.2236 35.021 60.1982 35.0971C60.1559 34.911 60.0797 34.7502 59.9528 34.6233C59.9528 34.6148 59.9528 34.6064 59.9443 34.6064C59.9443 34.6064 59.9443 34.6148 59.9359 34.6148C59.9359 34.6148 59.9359 34.6064 59.9274 34.6064C59.9274 34.6148 59.9274 34.6233 59.919 34.6233C59.7921 34.7587 59.7159 34.9194 59.6736 35.0971C59.6482 35.021 59.6228 34.9364 59.5974 34.8433C59.5128 34.5218 59.369 33.6587 59.369 33.278C59.8597 31.6873 59.2675 30.5281 58.5229 29.7836C57.956 29.2167 56.8899 28.6413 56.323 28.3875C55.9338 28.2098 55.7392 27.7275 55.7392 27.7275C55.5361 28.2606 55.5785 28.5906 55.6631 28.8782C55.7731 29.259 55.6546 29.5128 55.7561 29.7159C55.8577 29.9274 56.1115 30.0882 56.2553 30.3505C56.3822 30.5789 56.3315 30.9935 56.5515 31.222C56.7799 31.4589 57.093 31.4673 57.3299 31.7212C57.6091 32.0088 57.3891 32.1527 57.7191 32.4826C57.8799 32.6434 58.3875 32.8296 58.6498 33.0072C58.929 33.2018 59.0982 33.5826 59.1406 33.9041C59.1913 34.2256 59.2929 34.8602 59.4198 35.4017C59.479 35.6471 59.5805 35.8671 59.6651 36.0278C59.699 36.3747 59.7497 36.747 59.7497 37.1278C59.7497 37.3901 59.7413 37.8554 59.7328 38.3969C59.6482 38.1685 59.5382 37.9654 59.4282 37.8047C59.1913 35.4356 58.4975 34.0733 57.0422 33.388C56.8561 32.7026 56.1961 31.9242 55.1046 31.8227C54.707 31.2643 53.9624 31.0697 53.0909 31.0697C52.7186 30.8243 51.9233 30.6551 51.3141 30.9258C50.5695 30.7058 49.8334 30.7312 49.3257 30.8074C48.6996 30.892 48.1497 30.1643 48.1497 30.1643C48.285 31.3912 48.5389 32.0258 48.9196 32.4826C49.4188 33.0834 49.3257 33.6841 49.8503 34.1156C50.2142 34.4118 50.9249 34.1833 51.3902 34.5471C51.8133 34.8771 51.9064 35.7317 52.4986 36.0024C53.1163 36.2817 53.5901 35.9686 54.2416 36.2563C55.0031 36.5947 54.597 37.1531 55.5023 37.5254C55.9338 37.7031 56.7461 37.1955 57.3383 37.5001C57.9306 37.8047 58.0745 38.2192 58.929 38.0923C59.5213 38.3208 59.5805 38.9638 59.7159 39.3699C59.6905 40.453 59.6651 41.8575 59.6651 42.2805C59.7667 42.2805 59.8597 42.2805 59.9359 42.2805C60.012 42.2805 60.1051 42.2805 60.2066 42.2805C60.2066 41.8575 60.1813 40.453 60.1559 39.3699C60.2913 38.9638 60.342 38.3208 60.9428 38.0923C61.7973 38.2192 61.9412 37.8047 62.5334 37.5001C63.1257 37.1955 63.9295 37.7031 64.3695 37.5254C65.2748 37.1531 64.8687 36.5947 65.6302 36.2563C66.2817 35.9686 66.7555 36.2732 67.3731 36.0024C67.9654 35.7402 68.0585 34.8771 68.4815 34.5471C68.9554 34.1833 69.6661 34.4118 70.0215 34.1156C70.546 33.6841 70.453 33.0834 70.9522 32.4826C71.3329 32.0258 71.5867 31.3912 71.7221 30.1643C71.7306 30.1643 71.1806 30.892 70.546 30.8074ZM64.0564 28.4044C63.8618 30.4097 60.7228 31.5435 60.7397 33.1595C60.3505 31.1458 63.3118 30.122 64.0564 28.4044ZM59.1575 33.1511C59.1829 31.535 56.0438 30.4012 55.8407 28.396C56.5853 30.122 59.5467 31.1458 59.1575 33.1511ZM48.7335 31.2304C49.1142 31.975 49.8588 32.508 50.781 32.9565C50.9418 32.2796 50.468 31.7888 50.0195 31.425C50.6203 31.6788 51.2549 32.0681 51.1279 33.1088C51.5087 33.278 51.9148 33.4303 52.3379 33.5741C52.5494 32.9565 52.4733 32.3642 51.661 31.6365C52.7355 32.1019 52.9809 33.0495 52.7778 33.7264C53.2094 33.8703 53.6493 34.0056 54.0893 34.141C54.3685 33.3795 54.1485 32.525 53.4801 31.755C54.6393 32.4234 54.7493 33.4811 54.5039 34.2679C55.0116 34.4287 55.5108 34.5979 55.9846 34.7841C56.2892 33.9041 56.0015 33.2864 55.3838 32.4996C56.5515 33.1172 56.6022 34.2172 56.3823 34.9448C56.873 35.1479 57.3214 35.3763 57.7106 35.6302C57.8629 35.2156 57.8122 34.5979 57.2453 33.938C58.1675 34.471 58.2775 35.3425 58.0575 35.884C58.709 36.4001 59.1321 37.0516 59.1744 37.9062C58.6075 34.7079 49.7826 35.004 48.7335 31.2304ZM60.7228 37.9146C60.7651 37.0601 61.1881 36.4086 61.8396 35.8925C61.6196 35.3509 61.7296 34.4879 62.6519 33.9464C62.0765 34.6064 62.0258 35.224 62.1865 35.6386C62.5757 35.3763 63.0242 35.1563 63.5149 34.9533C63.2949 34.2172 63.3457 33.1257 64.5133 32.508C63.9041 33.2949 63.608 33.9126 63.9126 34.7925C64.3864 34.6064 64.8856 34.4456 65.3933 34.2764C65.1564 33.4895 65.2579 32.4319 66.417 31.7635C65.7486 32.5334 65.5286 33.3795 65.8078 34.1495C66.2478 34.0141 66.6878 33.8703 67.1193 33.7349C66.9078 33.058 67.1532 32.1104 68.2362 31.645C67.4155 32.3727 67.3393 32.9734 67.5593 33.5826C67.9823 33.4387 68.3885 33.2864 68.7692 33.1172C68.6423 32.0765 69.2769 31.6789 69.8776 31.4335C69.4376 31.7888 68.9638 32.288 69.1161 32.9649C70.0384 32.525 70.7745 31.9834 71.1637 31.2389C70.123 35.004 61.2897 34.7079 60.7228 37.9146Z" fill="black"/>
<path d="M61.789 39.7256C61.2983 39.8864 60.9852 40.2756 61.0867 40.5802C61.1883 40.8848 61.6706 41.0032 62.1613 40.8425C62.652 40.6817 62.9651 40.2925 62.8636 39.9879C62.762 39.6833 62.2797 39.5649 61.789 39.7256Z" fill="black"/>
<path d="M61.3063 41.0369C60.8917 40.9185 60.494 41.0285 60.4178 41.2823C60.3417 41.5446 60.6124 41.8492 61.027 41.9761C61.4416 42.0945 61.8393 41.9846 61.9155 41.7307C61.9916 41.4684 61.7209 41.1554 61.3063 41.0369Z" fill="black"/>
<path d="M61.4165 39.5814C61.6788 39.243 61.7211 38.8284 61.5096 38.6676C61.298 38.4984 60.9088 38.6422 60.6465 38.9891C60.3842 39.3276 60.3419 39.7422 60.5535 39.9029C60.765 40.0637 61.1542 39.9199 61.4165 39.5814Z" fill="black"/>
<path d="M34.5698 79.0357H32.3192C28.1394 79.0357 23.4604 75.4313 23.4604 70.6V46.5791H27.9617V70.8454C27.9617 72.1907 28.8501 73.6206 30.2293 74.196V46.5791H34.5613V79.0357H34.5698Z" fill="black"/>
<path d="M43.3186 78.8242H38.8173V57.5531H37.2859V53.5003H43.3271V78.8242H43.3186ZM43.3186 50.9366H38.8173V46.6807H43.3186V50.9366Z" fill="black"/>
<path d="M52.7697 79.2472C49.7237 79.2472 47.2446 76.7681 47.2446 73.7222V52.1042C47.2446 49.0582 50.0791 46.5791 53.3112 46.5791H58.0071V57.46H53.8527V50.7166H53.0828C52.3974 50.7166 51.7544 51.1904 51.7544 51.9603V73.9591C51.7544 74.4075 52.3297 74.9829 52.7782 74.9829C53.2943 74.9829 53.8527 74.3821 53.8527 73.9591V69.5763H58.354V73.7137C58.3455 76.7682 55.8411 79.2472 52.7697 79.2472Z" fill="black"/>
<path d="M71.824 78.8241H67.3228V67.5539H65.2244V78.8241H60.7231V51.681C60.7231 48.6012 63.2022 46.0967 66.2482 46.0967C69.2773 46.0967 71.8325 48.6519 71.8325 51.681V78.8241H71.824ZM65.1821 63.3319H67.3651V51.4271C67.3651 50.9364 66.7813 50.4034 66.2482 50.4034C65.7913 50.4034 65.1821 50.911 65.1821 51.4271V63.3319Z" fill="black"/>
<path d="M79.7776 78.8242H75.2764V46.5791H84.1689V50.835H79.7861V59.3215H83.9574V63.6366H79.7861V78.8242H79.7776Z" fill="black"/>
<path d="M95.8703 78.8242H87.1892V46.5791C87.1892 46.5791 94.7449 46.5791 97.1902 46.5791C97.1902 48.1698 95.371 50.835 91.6989 50.835C91.6989 53.9656 91.6989 59.3215 91.6989 59.3215H95.5572V63.6366H91.6989V74.5767H95.8703V78.8242Z" fill="black"/>
<path d="M47.9888 100.535C47.7942 100.476 47.5912 100.425 47.3881 100.366V100.358C43.3437 99.2409 39.5193 97.6079 35.9741 95.535C35.4834 95.2135 35.0011 94.9258 34.5357 94.6635C28.723 90.9829 23.7564 86.0925 19.9912 80.3474C19.9404 80.2628 19.8981 80.1782 19.8389 80.0936C19.492 79.5013 19.1536 78.9683 18.8151 78.469C14.6015 71.3448 12.1816 63.0445 12.1816 54.1774C12.1816 50.0145 12.7232 45.9701 13.84 42.1542C14.4661 40.0305 14.3138 36.8068 13.5016 35.0469C12.867 33.6847 12.0124 32.9147 11.2679 31.8994C10.3879 30.6979 9.6941 29.0057 9.49103 27.7704C9.32181 26.7297 8.5857 26.9835 8.22187 27.7535C7.31654 29.6657 6.79196 32.2886 7.19809 34.1839C7.9765 37.7883 10.3879 40.9527 10.6248 43.4234C10.5994 43.5164 10.574 43.618 10.5571 43.711C9.70256 42.408 8.50109 41.6465 7.4773 40.7328C6.30968 39.692 5.24358 38.1014 4.76976 36.8745C4.37209 35.8423 3.66983 36.2569 3.4583 37.1283C2.9591 39.269 2.97602 42.0781 3.8052 43.931C5.34511 47.3831 8.56878 50.2768 9.47411 52.959C9.47411 53.069 9.46565 53.1705 9.46565 53.2805C8.26418 52.0706 6.89349 51.3768 5.61587 50.6068C4.21133 49.7607 2.78988 48.3308 2.06223 47.1547C1.44457 46.1732 0.80999 46.7401 0.767685 47.6708C0.657691 49.9976 1.23304 52.8913 2.45143 54.6427C4.69361 57.8664 8.65339 60.227 10.1933 62.7992C10.2102 62.9176 10.2356 63.0276 10.261 63.1461C8.738 62.08 7.13886 61.64 5.62433 61.09C3.99981 60.5062 2.24837 59.3217 1.25843 58.2641C0.420782 57.3841 -0.120726 58.1033 0.0231123 59.0763C0.386938 61.4962 1.56302 64.3645 3.17909 65.9213C6.15738 68.7981 10.9379 70.541 13.0616 72.9609C13.1208 73.1047 13.18 73.2401 13.2393 73.384C11.4117 72.5971 9.65179 72.4871 7.95112 72.2502C6.15738 72.0048 4.10134 71.1672 2.8491 70.2957C1.79993 69.5596 1.3938 70.4141 1.75763 71.3871C2.6545 73.7985 4.49901 76.4807 6.49582 77.7245C10.3371 80.1274 15.9891 81.0158 18.6544 83.2495C18.7051 83.3172 18.7474 83.3849 18.7982 83.4526C16.6406 83.0042 14.7453 83.3257 12.8839 83.4865C10.9886 83.6557 8.68723 83.2834 7.20655 82.6827C5.96277 82.1835 5.75125 83.148 6.34352 84.0533C7.83266 86.304 10.3456 88.6223 12.6808 89.4261C17.2244 90.9999 23.5448 90.5937 26.8362 92.3283C24.4671 92.3706 22.5803 93.1828 20.685 93.8259C18.7897 94.4604 16.3529 94.6466 14.6946 94.4012C13.2985 94.1982 13.3239 95.2304 14.1531 96.0088C16.226 97.9464 19.3566 99.6894 21.9372 99.9347C27.5808 100.485 34.8826 97.9379 38.3686 99.9178C35.5257 100.315 32.9281 101.119 31.0583 102.075C29.1884 103.023 26.6077 103.497 24.8563 103.666C23.3841 103.801 23.6633 104.605 24.704 105.189C27.3015 106.644 31.1852 108.04 36.9895 107.617C43.6652 107.127 54.7577 101.305 59.6566 111.992C59.1828 105.282 54.7069 102.642 47.9888 100.535ZM10.6079 38.0506C10.4979 37.5176 10.574 36.7561 10.7856 36.1469C10.8617 35.9184 11.1325 35.8592 11.234 36.1892C11.3355 36.5107 11.6063 37.086 11.7501 37.3399C12.114 37.9575 12.5962 38.609 12.7401 39.4721C12.9008 40.3943 12.4355 41.6381 12.0293 42.8226C12.2493 41.0543 10.8617 39.2521 10.6079 38.0506ZM8.00189 47.5185C7.73113 46.9009 7.57883 45.9617 7.61268 45.1833C7.62114 44.8956 7.94266 44.811 8.0865 45.1494C8.25572 45.5302 8.738 46.1647 8.97491 46.444C9.53334 47.1208 10.2271 47.8147 10.6417 48.8215C11.0817 49.913 10.9802 51.4952 10.9125 53.0013C10.6079 50.8268 8.628 48.9315 8.00189 47.5185ZM7.08809 57.3164C6.46197 56.5126 5.72586 55.2012 5.64971 54.1689C5.61587 53.7543 5.92047 53.7035 6.22506 54.1689C6.57197 54.6935 7.15578 55.125 7.54499 55.4888C8.49263 56.3857 9.49103 56.978 10.3371 58.391C10.9802 59.474 11.3609 60.4978 11.7163 63.1968C10.2356 59.8886 8.50955 59.1355 7.08809 57.3164ZM8.06957 67.4358C7.12194 66.6743 6.10661 65.6929 5.62433 64.5929C5.37896 64.0345 5.58202 63.8399 6.10661 64.246C6.69888 64.6945 7.73959 65.126 8.30648 65.4136C9.57564 66.0567 10.7263 66.539 12.0293 68.0027C13.0278 69.128 13.6454 70.6764 14.6607 73.3078C12.1309 69.8049 10.0918 69.0604 8.06957 67.4358ZM10.9633 78.1137C9.44026 77.386 8.09496 76.2946 7.33346 75.22C7.02886 74.7885 7.29116 74.4924 7.9342 74.8562C8.66185 75.2708 9.7364 75.5838 10.4133 75.7784C12.0209 76.2353 13.527 76.5484 15.3799 77.7076C16.8521 78.6298 18.5021 80.7451 19.9489 82.8434C16.3276 79.679 13.7723 79.459 10.9633 78.1137ZM17.5206 88.9861C15.7607 88.6138 14.0938 87.827 13.0278 86.9047C12.5962 86.5324 12.7993 86.1601 13.5523 86.3717C14.4069 86.617 15.6084 86.6678 16.3529 86.6932C18.1382 86.7609 19.7712 86.7017 21.9795 87.4293C23.731 88.0131 25.9816 89.7815 28.0123 91.6006C23.4687 89.2484 20.7612 89.6715 17.5206 88.9861ZM26.7431 98.4456C24.8478 98.5217 22.9356 98.1495 21.6073 97.481C21.0742 97.2103 21.1757 96.7788 22.0049 96.7957C22.9441 96.8211 24.1794 96.5588 24.9494 96.398C26.7854 96.0004 28.4438 95.5181 30.889 95.6958C32.8351 95.8311 35.5934 97.0664 38.1402 98.3948C32.8858 97.1595 30.2291 98.3018 26.7431 98.4456ZM39.3416 105.511C37.5394 105.959 35.678 106.213 34.2565 105.908C33.6896 105.781 33.6812 105.35 34.4596 105.121C36.8202 104.444 39.3839 102.414 44.6044 101.915C47.515 101.635 52.5578 102.862 54.6561 105.333C49.901 102.524 42.7853 104.656 39.3416 105.511Z" fill="black"/>
<path d="M60.2493 112C65.1482 101.314 76.2322 107.144 82.9164 107.626C88.7292 108.049 92.6043 106.653 95.2019 105.198C96.2426 104.614 96.5303 103.818 95.0496 103.675C93.2981 103.505 90.7175 103.031 88.8476 102.084C86.9777 101.136 84.3802 100.324 81.5373 99.9263C85.0232 97.9464 92.3336 100.493 97.9687 99.9432C100.549 99.6894 103.68 97.9464 105.753 96.0173C106.582 95.2389 106.607 94.1981 105.211 94.4097C103.553 94.655 101.116 94.4689 99.2209 93.8343C97.3256 93.1997 95.4388 92.3875 93.0697 92.3367C96.3611 90.5937 102.681 90.9999 107.225 89.4346C109.56 88.6308 112.073 86.3124 113.562 84.0618C114.163 83.1565 113.952 82.1919 112.699 82.6911C111.219 83.2918 108.917 83.6557 107.022 83.4949C105.161 83.3257 103.265 83.0126 101.108 83.4611C101.158 83.3934 101.201 83.3257 101.252 83.258C103.917 81.0243 109.569 80.1359 113.41 77.7329C115.407 76.4892 117.243 73.807 118.148 71.3956C118.512 70.431 118.106 69.5765 117.057 70.3041C115.813 71.1756 113.749 72.0133 111.955 72.2586C110.254 72.4955 108.494 72.5971 106.667 73.3924C106.726 73.2486 106.785 73.1132 106.844 72.9694C108.968 70.5495 113.757 68.8065 116.727 65.9298C118.334 64.3729 119.519 61.5131 119.883 59.0848C120.027 58.1118 119.485 57.401 118.647 58.2894C117.658 59.3471 115.906 60.5316 114.282 61.1154C112.767 61.6654 111.176 62.1054 109.645 63.1715C109.662 63.053 109.696 62.943 109.713 62.8246C111.253 60.2524 115.212 57.8918 117.454 54.6681C118.673 52.9167 119.248 50.023 119.138 47.6962C119.096 46.757 118.453 46.1901 117.844 47.1801C117.116 48.3477 115.695 49.7861 114.29 50.6322C113.012 51.4021 111.642 52.0959 110.44 53.3059C110.44 53.1959 110.44 53.0944 110.432 52.9844C111.337 50.3022 114.561 47.4085 116.101 43.9564C116.93 42.095 116.947 39.2859 116.431 37.1283C116.219 36.2569 115.525 35.8423 115.119 36.8745C114.645 38.1014 113.579 39.692 112.412 40.7327C111.388 41.6465 110.195 42.4165 109.332 43.711C109.306 43.618 109.281 43.5164 109.264 43.4234C109.501 40.9443 111.912 37.7883 112.691 34.1839C113.097 32.2886 112.572 29.6657 111.667 27.7535C111.303 26.9835 110.567 26.7297 110.398 27.7704C110.195 29.0057 109.51 30.6979 108.621 31.8994C107.868 32.9147 107.014 33.6847 106.387 35.0469C105.567 36.8068 105.423 40.0305 106.049 42.1542C107.166 45.9786 107.707 50.0145 107.707 54.1774C107.707 63.0361 105.287 71.3364 101.074 78.469C100.735 78.9682 100.397 79.5098 100.05 80.0936C99.9993 80.1866 99.9485 80.2628 99.8978 80.3474C96.1326 86.0925 91.1575 90.9829 85.3532 94.6635C84.8879 94.9258 84.414 95.2135 83.9148 95.535C80.3697 97.6079 76.5453 99.2494 72.5009 100.358V100.366C72.2978 100.417 72.1032 100.468 71.9001 100.535C65.2074 102.642 60.7315 105.282 60.2493 112ZM107.885 42.8142C107.479 41.6296 107.014 40.3943 107.174 39.4636C107.318 38.6006 107.8 37.9491 108.164 37.3314C108.317 37.0776 108.587 36.4938 108.68 36.1807C108.782 35.8507 109.053 35.91 109.129 36.1384C109.34 36.7476 109.416 37.5176 109.306 38.0421C109.061 39.2521 107.673 41.0543 107.885 42.8142ZM109.002 53.0013C108.934 51.4952 108.833 49.9045 109.273 48.8215C109.687 47.8062 110.373 47.1124 110.939 46.444C111.168 46.1647 111.659 45.5302 111.828 45.1494C111.98 44.811 112.293 44.8956 112.302 45.1833C112.336 45.9617 112.183 46.9009 111.904 47.5185C111.286 48.9315 109.315 50.8268 109.002 53.0013ZM108.198 63.2053C108.553 60.5062 108.934 59.4824 109.577 58.3994C110.423 56.9864 111.422 56.3857 112.369 55.4973C112.759 55.1335 113.342 54.7019 113.689 54.1774C113.994 53.712 114.298 53.7628 114.265 54.1774C114.188 55.2012 113.452 56.5211 112.826 57.3249C111.405 59.1355 109.679 59.8886 108.198 63.2053ZM105.254 73.3078C106.269 70.6764 106.887 69.128 107.885 68.0027C109.196 66.539 110.339 66.0482 111.608 65.4136C112.175 65.126 113.224 64.7029 113.808 64.246C114.332 63.8483 114.535 64.0345 114.29 64.5929C113.808 65.6929 112.792 66.6743 111.845 67.4358C109.831 69.0604 107.783 69.8049 105.254 73.3078ZM99.9655 82.8349C101.412 80.7366 103.071 78.6213 104.534 77.6991C106.387 76.5399 107.893 76.2269 109.501 75.77C110.178 75.5754 111.253 75.2623 111.98 74.8477C112.623 74.4839 112.885 74.78 112.581 75.2115C111.811 76.2861 110.466 77.3776 108.951 78.1052C106.15 79.459 103.587 79.679 99.9655 82.8349ZM91.9021 91.6091C93.9327 89.7899 96.1834 88.0216 97.9348 87.4378C100.143 86.7101 101.776 86.7609 103.561 86.7017C104.306 86.6763 105.507 86.617 106.362 86.3801C107.115 86.1686 107.318 86.5409 106.887 86.9132C105.821 87.8354 104.154 88.6308 102.394 88.9946C99.1532 89.6715 96.4541 89.2484 91.9021 91.6091ZM81.7657 98.3864C84.3125 97.058 87.0708 95.8311 89.0169 95.6873C91.4621 95.5181 93.1205 96.0003 94.9565 96.3896C95.7265 96.5588 96.9618 96.8126 97.901 96.7872C98.7301 96.7618 98.8317 97.2018 98.2986 97.4726C96.9702 98.141 95.058 98.5133 93.1628 98.4371C89.6853 98.3018 87.0285 97.1595 81.7657 98.3864ZM65.2582 105.333C67.3566 102.862 72.3993 101.635 75.3099 101.915C80.522 102.414 83.0941 104.444 85.4548 105.121C86.2332 105.341 86.2332 105.781 85.6578 105.908C84.2364 106.221 82.3749 105.959 80.5727 105.511C77.1291 104.656 70.0133 102.524 65.2582 105.333Z" fill="black"/>
<path d="M19.3568 25.9764C18.7392 25.9764 18.1469 25.7648 17.6054 25.3418C16.9793 24.8595 16.607 24.208 16.5054 23.4042C16.4039 22.6004 16.607 21.8727 17.0977 21.2297C17.5885 20.5951 18.24 20.2144 19.0438 20.1128C19.8476 20.0029 20.5837 20.1975 21.2183 20.6882C21.8613 21.1789 22.2336 21.8389 22.3266 22.6342C22.4197 23.438 22.2167 24.1742 21.7175 24.8257C21.2775 25.401 20.6767 25.7733 19.9237 25.9256C19.7376 25.951 19.543 25.9764 19.3568 25.9764ZM19.3907 21.2043C19.3145 21.2043 19.2299 21.2128 19.1538 21.2212C18.663 21.2805 18.2738 21.5089 17.9692 21.9066C17.6646 22.3127 17.5462 22.7442 17.6138 23.235C17.6815 23.7257 17.91 24.1149 18.3161 24.428C18.663 24.6903 19.0184 24.8257 19.4076 24.8257C19.5007 24.8257 19.5853 24.8172 19.6783 24.8003C20.1691 24.7241 20.5498 24.5126 20.8375 24.1403C21.1506 23.7342 21.269 23.3027 21.2013 22.8035C21.1336 22.3127 20.8967 21.915 20.4906 21.602C20.1522 21.3312 19.7883 21.2043 19.3907 21.2043Z" fill="black"/>
<path d="M27.9783 17.9386L25 14.5034L24.0777 15.2987L23.3501 14.4611L26.0661 12.1089L26.7937 12.9465L25.8799 13.7419L28.8582 17.1771L27.9783 17.9386Z" fill="black"/>
<path d="M42.0745 9.2065L40.0354 3.9268L41.1184 3.51221L43.1575 8.7919L42.0745 9.2065Z" fill="black"/>
<path d="M47.3541 7.50571C47.0411 7.51418 46.7449 7.43803 46.4657 7.29419C46.0342 7.05728 45.7465 6.70191 45.6196 6.22809C45.4673 5.6612 45.6111 5.11123 46.0511 4.59511L46.2542 4.3582C45.8819 4.08745 45.645 3.78285 45.5519 3.43595C45.4504 3.04674 45.4927 2.68291 45.6873 2.36139C45.8819 2.03987 46.1865 1.82834 46.5926 1.71835C46.9818 1.60836 47.3541 1.6422 47.6756 1.81142C48.0056 1.98064 48.2256 2.25986 48.3271 2.62368C48.3948 2.87752 48.3864 3.13981 48.2933 3.38518C48.2256 3.57978 48.0818 3.82515 47.8787 4.10437L48.7756 4.73895C48.8179 4.65434 48.8602 4.57819 48.894 4.49358C48.9533 4.36666 49.0125 4.23975 49.0633 4.12129L49.1394 3.92669L50.0955 4.50204L50.0447 4.64588C50.0024 4.75587 49.9517 4.88279 49.8755 5.03509C49.8248 5.14508 49.7655 5.26353 49.6894 5.40737L51.1362 6.45654L49.7317 6.83729L49.1394 6.41424C48.7925 6.96421 48.3695 7.31111 47.8618 7.44649C47.6926 7.47187 47.5233 7.49725 47.3541 7.50571ZM47.1595 4.99278C46.9565 5.23815 46.8126 5.43276 46.7534 5.56813C46.6942 5.68659 46.6772 5.80504 46.7111 5.90657C46.7534 6.0758 46.8634 6.20271 47.0411 6.31271C47.1595 6.38039 47.2864 6.41424 47.4049 6.41424C47.4557 6.41424 47.5064 6.40578 47.5487 6.39732C47.7687 6.33809 47.9972 6.12656 48.2256 5.75427L47.1595 4.99278ZM46.9818 2.62368C46.9395 2.62368 46.8972 2.63215 46.8465 2.64061C46.7365 2.67445 46.6603 2.72522 46.6096 2.80983C46.5588 2.88598 46.5503 2.95367 46.5672 3.03828C46.6011 3.15673 46.6857 3.26672 46.8211 3.36826L47.0072 3.49517C47.0749 3.41056 47.1257 3.33441 47.168 3.26672C47.2357 3.17365 47.2611 3.12289 47.2695 3.08904C47.3034 3.01289 47.3034 2.93674 47.2864 2.85213C47.2611 2.75906 47.2103 2.69137 47.1341 2.65753C47.0918 2.63215 47.0411 2.62368 46.9818 2.62368Z" fill="black"/>
<path d="M53.4378 6.18623L52.854 0.559634L56.12 0.221191L56.2384 1.32959L54.1232 1.54958L54.2162 2.45491L56.23 2.22646L56.34 3.33486L54.3262 3.56331L54.4701 4.96784L56.5346 4.73939L56.6445 5.84779L53.4378 6.18623Z" fill="black"/>
<path d="M30.3905 15.8908L27.0823 11.3049L29.7475 9.38428L30.399 10.2896L28.673 11.5334L29.206 12.278L30.839 11.0765L31.4905 11.9818L29.8575 13.1833L30.6867 14.3255L32.362 13.0987L33.0135 14.004L30.3905 15.8908Z" fill="black"/>
<path d="M38.0218 11.0171L35.6189 5.88973L38.5887 4.49365L39.0625 5.50052L37.1419 6.40585L37.5311 7.23503L39.3587 6.36355L39.8325 7.37041L38.0049 8.2419L38.6057 9.51952L40.484 8.62265L40.9578 9.62951L38.0218 11.0171Z" fill="black"/>
<path d="M59.5129 5.86445C59.0307 5.88138 58.6076 5.746 58.2692 5.46679C57.9307 5.17911 57.6092 4.67991 57.5669 4.07917L58.7261 3.85918C58.7261 4.17224 58.8953 4.45146 58.9376 4.50222C59.073 4.67991 59.2676 4.75606 59.5129 4.7476C59.7329 4.73913 59.8937 4.66298 60.0121 4.52761C60.1391 4.39223 60.1898 4.22301 60.1814 4.01148C60.1729 3.92687 60.1644 3.85072 60.1391 3.7915C60.1137 3.73227 60.0798 3.67304 60.0291 3.62228C59.9783 3.56305 59.9106 3.51228 59.826 3.46152C59.7329 3.41075 59.6314 3.35998 59.5045 3.30922L58.9714 3.12307C58.1592 2.82694 57.7277 2.34466 57.6938 1.67623C57.6684 1.2278 57.8292 0.838587 58.1507 0.517067C58.4722 0.204008 58.8868 0.0263258 59.3776 0.000942652H59.4114C60.249 -0.0244405 60.909 0.466301 61.1121 1.05011L60.1729 1.53239C60.0798 1.2278 59.826 1.1178 59.4537 1.1178C59.2591 1.1178 59.1153 1.18549 59.0053 1.28702C58.9037 1.38009 58.8614 1.49009 58.8614 1.62547C58.8699 1.80315 59.0307 1.94699 59.3522 2.05698L59.8937 2.24312C60.359 2.40388 60.7144 2.61541 60.9429 2.88616C61.1798 3.15692 61.3151 3.49536 61.3321 3.90149C61.3574 4.43454 61.1967 4.89143 60.8582 5.26372C60.5198 5.63601 60.0714 5.83907 59.5468 5.86445H59.5129Z" fill="black"/>
<path d="M25.423 20.5109C25.093 20.8662 24.7038 21.0693 24.2638 21.1116C23.8238 21.1539 23.24 21.0185 22.7831 20.6293L23.4431 19.6563C23.6631 19.8848 23.9846 19.9525 24.0523 19.9609C24.2723 19.9863 24.4584 19.9101 24.6276 19.724C24.7715 19.5632 24.8307 19.4025 24.8222 19.2163C24.8138 19.0302 24.7292 18.8694 24.5769 18.7341C24.5176 18.6748 24.45 18.6325 24.3823 18.6071C24.323 18.5818 24.2554 18.5648 24.1792 18.5648C24.1031 18.5648 24.0184 18.5733 23.9254 18.5987C23.8238 18.6241 23.7138 18.6664 23.5869 18.7256L23.0877 18.9625C22.3093 19.3263 21.6578 19.284 21.1671 18.8441C20.8371 18.5395 20.6679 18.1587 20.6763 17.7018C20.6763 17.2534 20.854 16.8388 21.184 16.4665L21.2094 16.4411C21.7847 15.8235 22.597 15.705 23.1554 15.9842L22.8254 16.9826C22.5378 16.8388 22.2839 16.9319 22.0216 17.2026C21.8863 17.3464 21.827 17.4903 21.827 17.6341C21.8186 17.778 21.8693 17.8795 21.9709 17.9726C22.1062 18.091 22.3262 18.0826 22.6224 17.9387L23.1385 17.6934C23.5785 17.4818 23.9846 17.3803 24.3315 17.4057C24.6869 17.4311 25.0253 17.5749 25.3214 17.8457C25.7191 18.201 25.9306 18.641 25.9476 19.1402C25.9645 19.6479 25.7953 20.0963 25.4399 20.494L25.423 20.5109Z" fill="black"/>
<path d="M81.1221 10.7803C80.6821 10.5772 80.3606 10.2726 80.1829 9.87493C80.0052 9.4688 79.9375 8.87653 80.166 8.3181L81.2998 8.63962C81.1559 8.91883 81.1898 9.24881 81.2067 9.3165C81.2575 9.53649 81.3844 9.68879 81.6128 9.79032C81.8159 9.87493 81.9851 9.88339 82.1628 9.8157C82.332 9.74801 82.4589 9.6211 82.5435 9.42649C82.5774 9.35034 82.5943 9.2742 82.6028 9.20651C82.6112 9.13882 82.6028 9.07113 82.5774 9.00344C82.552 8.92729 82.5181 8.85114 82.4674 8.77499C82.4082 8.69038 82.332 8.59731 82.2474 8.49578L81.8666 8.09811C81.2744 7.47199 81.1051 6.84587 81.3674 6.23668C81.5451 5.82209 81.8582 5.54287 82.2897 5.39903C82.7128 5.2552 83.1612 5.28904 83.6181 5.48364L83.6519 5.50057C84.4134 5.84747 84.7942 6.58358 84.7096 7.19278L83.6519 7.20124C83.6942 6.87972 83.525 6.66819 83.1866 6.50743C83.0089 6.42282 82.8566 6.41436 82.7128 6.45666C82.5774 6.49897 82.4928 6.57512 82.4335 6.69357C82.3658 6.85433 82.442 7.0574 82.6789 7.30277L83.0766 7.7089C83.4235 8.06426 83.6435 8.41117 83.7365 8.74961C83.8296 9.09651 83.7958 9.46034 83.635 9.83262C83.4235 10.3234 83.0766 10.6618 82.6028 10.848C82.1289 11.0256 81.6467 11.0172 81.1559 10.8056L81.1221 10.7803Z" fill="black"/>
<path d="M76.9762 8.9698C76.5193 8.80904 76.1723 8.53829 75.9608 8.15754C75.7408 7.76833 75.6224 7.18452 75.8001 6.60917L76.9592 6.82069C76.8408 7.11683 76.9085 7.43835 76.9254 7.49758C76.9931 7.7091 77.1369 7.85294 77.3738 7.92909C77.5853 7.99678 77.7546 7.98832 77.9238 7.90371C78.093 7.8191 78.203 7.68372 78.2707 7.48065C78.2961 7.40451 78.313 7.32836 78.3045 7.25221C78.3045 7.18452 78.2876 7.11683 78.2622 7.04914C78.2368 6.98145 78.1861 6.9053 78.1268 6.82915C78.0592 6.74454 77.9746 6.65993 77.8815 6.57532L77.4669 6.21996C76.8154 5.65307 76.5869 5.04387 76.7985 4.40929C76.9423 3.97778 77.2215 3.67318 77.6446 3.4955C78.0592 3.31782 78.5076 3.3009 78.9814 3.4532L79.0153 3.46166C79.8106 3.73241 80.2506 4.43468 80.2252 5.05233L79.176 5.16233C79.1845 4.84081 78.9983 4.6462 78.6514 4.51929C78.4653 4.4516 78.313 4.46006 78.1776 4.51929C78.0507 4.57005 77.9661 4.65466 77.9238 4.78158C77.8646 4.9508 77.9661 5.14541 78.2199 5.36539L78.6514 5.73768C79.0322 6.0592 79.2776 6.38072 79.4045 6.7107C79.5314 7.04914 79.5314 7.41297 79.4045 7.80217C79.2353 8.30984 78.9222 8.68212 78.4738 8.90211C78.0253 9.1221 77.5346 9.15594 77.0269 8.99518L76.9762 8.9698Z" fill="black"/>
<path d="M63.5151 5.89821L62.356 5.80514L62.8044 0.161621L63.8874 0.246232C64.3528 0.280076 64.6912 0.339303 64.9281 0.423914C65.1819 0.516985 65.4019 0.660823 65.5796 0.87235C65.8927 1.22771 66.0281 1.65923 65.9857 2.15843C65.9434 2.69148 65.7235 3.11453 65.3342 3.4022C64.9535 3.68142 64.4628 3.80833 63.8705 3.75757L63.6843 3.74065L63.5151 5.89821ZM63.7774 2.65763L63.8959 2.66609C63.9551 2.67455 64.0228 2.67455 64.0736 2.67455C64.7335 2.67455 64.8435 2.35303 64.8604 2.07382C64.8858 1.80307 64.8097 1.43078 63.9551 1.36309L63.8705 1.35463L63.7774 2.65763Z" fill="black"/>
<path d="M70.4868 6.90521L69.0738 6.626L68.0669 4.22306L67.7116 6.39755L66.5693 6.19448L67.5339 0.618652L68.6338 0.813256C69.3699 0.940172 69.8776 1.17708 70.1653 1.52398C70.4868 1.91319 70.6052 2.37855 70.5122 2.90313C70.4445 3.30926 70.2583 3.64771 69.9707 3.91C69.7507 4.1046 69.4884 4.23152 69.2007 4.29075L70.4868 6.90521ZM68.2615 3.20773L68.3377 3.21619C68.4646 3.24158 68.5831 3.25004 68.6846 3.25004C69.1076 3.25004 69.3276 3.08082 69.3953 2.70007C69.4292 2.48854 69.3953 2.32778 69.2769 2.20933C69.15 2.07395 68.913 1.97242 68.5915 1.92165L68.49 1.90473L68.2615 3.20773Z" fill="black"/>
<path d="M19.7627 27.3047L19.0012 28.5231L16.3952 28.6077L18.2989 29.7077L17.7067 30.7061L12.8416 27.8208L13.4084 26.8563C13.7892 26.2132 14.1869 25.824 14.6184 25.6717C15.0922 25.511 15.5745 25.5617 16.0314 25.8325C16.3867 26.044 16.6406 26.3317 16.7759 26.6955C16.8859 26.9747 16.9113 27.2624 16.8605 27.5501L19.7627 27.3047ZM15.5152 28.0662L15.5491 27.9985C15.6168 27.8885 15.6675 27.7785 15.7014 27.6855C15.8537 27.2878 15.7691 27.0255 15.4391 26.8309C15.253 26.7209 15.0922 26.704 14.9314 26.7717C14.7622 26.8478 14.5845 27.0255 14.4153 27.3047L14.3815 27.3978L15.5152 28.0662Z" fill="black"/>
<path d="M37.4293 11.3301L36.177 12.0323L33.8418 10.8647L34.984 12.7431L33.9856 13.3353L31.0835 8.47869L32.0396 7.90334C32.6826 7.51413 33.2157 7.3703 33.6641 7.43798C34.1633 7.52259 34.5525 7.80181 34.8233 8.2587C35.0348 8.61407 35.1194 8.98635 35.0687 9.37556C35.0263 9.6717 34.9164 9.93399 34.7302 10.1709L37.4293 11.3301ZM33.3341 9.96783L33.3934 9.93399C33.5034 9.8663 33.5964 9.79862 33.681 9.73093C34.0026 9.45171 34.0618 9.18096 33.8587 8.85098C33.7487 8.66484 33.6133 8.57176 33.4441 8.55484C33.258 8.53792 33.0211 8.61407 32.7419 8.78329L32.6488 8.83406L33.3341 9.96783Z" fill="black"/>
<path d="M100.075 27.2114L99.2459 26.0354L100.168 23.5901L98.4167 24.927L97.7229 23.9962L102.258 20.6118L102.926 21.5087C103.375 22.1094 103.578 22.6255 103.553 23.0824C103.519 23.5901 103.29 24.0047 102.859 24.3262C102.529 24.5716 102.165 24.6985 101.776 24.6816C101.48 24.6731 101.2 24.5885 100.955 24.4277L100.075 27.2114ZM100.997 22.9978L101.04 23.0571C101.116 23.1586 101.192 23.2517 101.268 23.3194C101.581 23.6155 101.852 23.6409 102.156 23.4124C102.326 23.2855 102.41 23.1417 102.41 22.9724C102.41 22.7863 102.309 22.5579 102.114 22.2956L102.055 22.211L100.997 22.9978Z" fill="black"/>
<path d="M74.3365 7.92051L71.1636 7.05748L72.6527 1.6001L75.8256 2.46313L75.5295 3.53768L73.4819 2.97925L73.245 3.8592L75.2333 4.40071L74.9372 5.47526L72.9489 4.93375L72.5766 6.29598L74.6241 6.85441L74.3365 7.92051Z" fill="black"/>
<path d="M87.4255 13.9108C86.867 13.9108 86.3255 13.7501 85.8263 13.4285C85.2171 13.0393 84.7941 12.464 84.5825 11.7363C84.3456 10.9241 84.4726 10.1287 84.9548 9.36724C85.3863 8.69882 86.004 8.27577 86.7993 8.11501C87.5862 7.94579 88.3392 8.08963 89.0161 8.52114C89.693 8.95265 90.1161 9.57031 90.2937 10.3656C90.4714 11.161 90.3361 11.9056 89.9045 12.5824C89.4646 13.2593 88.8469 13.6908 88.0516 13.8516C87.8485 13.8939 87.637 13.9108 87.4255 13.9108ZM87.4678 9.16418C87.3408 9.16418 87.2055 9.1811 87.0616 9.20649C86.5794 9.30802 86.2155 9.57031 85.9363 10.0018C85.6486 10.4587 85.564 10.9156 85.674 11.3979C85.7925 11.8886 86.0378 12.244 86.4355 12.4978C86.7401 12.6924 87.0616 12.794 87.4001 12.794C87.527 12.794 87.6624 12.777 87.7977 12.7517C88.2885 12.6417 88.6608 12.3794 88.9315 11.9479C89.2107 11.5079 89.2953 11.0595 89.1938 10.5856C89.0923 10.1034 88.8384 9.73953 88.4069 9.46032C88.1108 9.25725 87.7893 9.16418 87.4678 9.16418Z" fill="black"/>
<path d="M93.1711 18.4122C92.9342 18.4122 92.7142 18.3699 92.5112 18.2853C92.2658 18.1668 92.0035 17.9891 91.7158 17.7437L90.6582 16.8384L94.3303 12.5317L95.1849 13.2679C96.3186 14.2578 96.2679 15.307 95.8533 15.7892C95.4472 16.2631 94.9226 16.3308 94.6095 16.2038C94.7618 16.4407 94.8295 16.7876 94.8041 17.0246C94.7703 17.3461 94.6518 17.5491 94.4234 17.8199C94.1272 18.1753 93.738 18.3614 93.2811 18.3952C93.2473 18.4122 93.205 18.4122 93.1711 18.4122ZM92.2573 16.7538L92.4942 16.9569C92.7312 17.1599 92.9427 17.2699 93.1204 17.2699C93.3065 17.2699 93.4504 17.2022 93.5603 17.0669C93.6788 16.9315 93.7211 16.7792 93.6957 16.6015C93.6788 16.4746 93.5857 16.2715 93.2219 15.9585L93.0527 15.8146L92.2573 16.7538ZM93.7296 15.0193L93.7803 15.0616C94.1442 15.3747 94.5926 15.4508 94.8295 15.1716C95.0749 14.8924 94.9649 14.5201 94.5672 14.1816L94.4911 14.114L93.7296 15.0193Z" fill="black"/>
<path d="M97.3844 23.4549L96.5383 22.4903L97.0799 21.2381L95.6922 19.749L94.4146 20.172L93.5093 19.2667L99.8551 17.3037L97.3844 23.4549ZM96.7414 19.3851L97.5283 20.2312L98.1459 18.8775L96.7414 19.3851Z" fill="black"/>
<path d="M101.235 29.2761C100.972 28.8699 100.871 28.4384 100.93 28.0069C100.998 27.5669 101.268 27.0339 101.759 26.687L102.538 27.5669C102.267 27.7277 102.114 28.0238 102.098 28.0831C102.021 28.2946 102.047 28.4892 102.182 28.7007C102.301 28.8869 102.444 28.9799 102.631 29.0138C102.817 29.0476 102.986 29.0053 103.164 28.8953C103.231 28.853 103.291 28.7938 103.333 28.743C103.375 28.6923 103.401 28.633 103.426 28.5569C103.443 28.4807 103.46 28.3961 103.46 28.3031C103.46 28.2015 103.443 28.0831 103.417 27.9477L103.307 27.4062C103.147 26.5601 103.341 25.9424 103.891 25.5701C104.264 25.3163 104.678 25.2486 105.118 25.3671C105.55 25.4771 105.914 25.7478 106.193 26.1624L106.21 26.1878C106.667 26.8901 106.582 27.7192 106.184 28.1846L105.287 27.6262C105.499 27.3808 105.465 27.1101 105.27 26.7885C105.169 26.6193 105.042 26.5347 104.898 26.4924C104.763 26.4501 104.644 26.467 104.534 26.5432C104.391 26.6447 104.348 26.8562 104.416 27.1862L104.534 27.7446C104.636 28.2269 104.636 28.6415 104.526 28.9715C104.416 29.3184 104.187 29.6061 103.857 29.826C103.409 30.1222 102.935 30.2237 102.444 30.1222C101.954 30.0206 101.548 29.7414 101.251 29.3015L101.235 29.2761Z" fill="black"/>
<path d="M17.2493 20.443C17.6138 20.443 17.9093 20.1475 17.9093 19.783C17.9093 19.4185 17.6138 19.123 17.2493 19.123C16.8848 19.123 16.5894 19.4185 16.5894 19.783C16.5894 20.1475 16.8848 20.443 17.2493 20.443Z" fill="black"/>
<path d="M15.7523 22.4737C16.1167 22.4737 16.4122 22.1783 16.4122 21.8138C16.4122 21.4493 16.1167 21.1538 15.7523 21.1538C15.3878 21.1538 15.0923 21.4493 15.0923 21.8138C15.0923 22.1783 15.3878 22.4737 15.7523 22.4737Z" fill="black"/>
</svg>
