<svg width="32" height="32" viewBox="0 0 32 32" fill="none" xmlns="http://www.w3.org/2000/svg">
<g clip-path="url(#clip0_5030_6460)">
<path fill-rule="evenodd" clip-rule="evenodd" d="M9.33325 27.9999C9.33325 26.5272 10.5272 25.3333 11.9999 25.3333C13.4727 25.3333 14.6666 26.5272 14.6666 27.9999C14.6666 29.4727 13.4727 30.6666 11.9999 30.6666C10.5272 30.6666 9.33325 29.4727 9.33325 27.9999Z" fill="#C9AC60"/>
<path fill-rule="evenodd" clip-rule="evenodd" d="M24 27.9999C24 26.5272 25.1939 25.3333 26.6667 25.3333C28.1394 25.3333 29.3333 26.5272 29.3333 27.9999C29.3333 29.4727 28.1394 30.6666 26.6667 30.6666C25.1939 30.6666 24 29.4727 24 27.9999Z" fill="#C9AC60"/>
<path fill-rule="evenodd" clip-rule="evenodd" d="M0 1.33333C0 0.596954 0.596954 0 1.33333 0H6.66667C7.30217 0 7.84935 0.448514 7.97407 1.07166L9.09391 6.66667H30.6667C31.064 6.66667 31.4407 6.8439 31.694 7.15007C31.9473 7.45624 32.0508 7.85944 31.9764 8.24977L29.8412 19.4464C29.6583 20.3672 29.1573 21.1943 28.426 21.783C27.6984 22.3688 26.7888 22.6813 25.8551 22.6667H12.9182C11.9845 22.6813 11.0749 22.3688 10.3473 21.783C9.61633 21.1946 9.11551 20.3679 8.93244 19.4476C8.93236 19.4472 8.93251 19.4479 8.93244 19.4476L6.70505 8.31894C6.69602 8.28213 6.68851 8.24471 6.6826 8.20677L5.57375 2.66667H1.33333C0.596954 2.66667 0 2.06971 0 1.33333ZM9.62764 9.33333L11.5478 18.9269C11.6087 19.2338 11.7757 19.5096 12.0195 19.7058C12.2632 19.902 12.5683 20.0062 12.8811 20.0002L12.9067 20H25.8667L25.8922 20.0002C26.2051 20.0062 26.5101 19.902 26.7539 19.7058C26.9965 19.5105 27.163 19.2364 27.2247 18.9312L29.055 9.33333H9.62764Z" fill="#C9AC60"/>
</g>
<defs>
<clipPath id="clip0_5030_6460">
<rect width="32" height="32" fill="white"/>
</clipPath>
</defs>
</svg>
